<svg xmlns="http://www.w3.org/2000/svg" viewBox="0 0 512 512" width="512" height="512"><path d="M502.518,447.816a24.112,24.112,0,0,0-8.013-17.233L347.4,299.434A187.928,187.928,0,0,0,381,192C381,87.785,296.215,3,192,3S3,87.785,3,192,87.785,381,192,381a187.928,187.928,0,0,0,107.434-33.6L430.589,494.513a24.1,24.1,0,0,0,17.229,8q.336.009.669.009a24.116,24.116,0,0,0,16.989-7.032l30.019-30.02A24.109,24.109,0,0,0,502.518,447.816ZM27,192c0-90.981,74.019-165,165-165s165,74.019,165,165S282.981,357,192,357,27,282.981,27,192ZM448.5,478.534,318.288,332.487a190.772,190.772,0,0,0,14.2-14.2L478.524,448.505Z"/><path d="M192,48C112.6,48,48,112.6,48,192s64.6,144,144,144,144-64.6,144-144S271.4,48,192,48Zm0,264A120,120,0,1,1,312,192,120.136,120.136,0,0,1,192,312Z"/><path d="M260,160H224V124a24.027,24.027,0,0,0-24-24H184a24.027,24.027,0,0,0-24,24v36H124a24.027,24.027,0,0,0-24,24v16a24.027,24.027,0,0,0,24,24h36v36a24.027,24.027,0,0,0,24,24h16a24.027,24.027,0,0,0,24-24V224h36a24.027,24.027,0,0,0,24-24V184A24.027,24.027,0,0,0,260,160Zm0,40H224a24.027,24.027,0,0,0-24,24v36H184V224a24.027,24.027,0,0,0-24-24H124V184h36a24.027,24.027,0,0,0,24-24V124h16v36a24.027,24.027,0,0,0,24,24h36Z"/></svg>
