<?xml version="1.0" encoding="iso-8859-1"?>
<!-- Generator: Adobe Illustrator 19.0.0, SVG Export Plug-In . SVG Version: 6.00 Build 0)  -->
<svg version="1.1" id="Layer_1" xmlns="http://www.w3.org/2000/svg" xmlns:xlink="http://www.w3.org/1999/xlink" x="0px" y="0px"
	 viewBox="0 0 512 512" style="enable-background:new 0 0 512 512;" xml:space="preserve">
<g>
	<g>
		<path d="M213.34,0c-5.888,0-10.667,4.779-10.667,10.667v42.667c0,5.888,4.757,10.667,10.667,10.667
			c5.888,0,10.667-4.779,10.667-10.667V10.667C224.007,4.779,219.228,0,213.34,0z"/>
	</g>
</g>
<g>
	<g>
		<path d="M158.577,65.152l-21.333-36.949c-2.944-5.12-9.493-6.827-14.571-3.904c-5.099,2.944-6.848,9.472-3.904,14.571
			l21.333,36.949c1.963,3.413,5.568,5.333,9.237,5.333c1.813,0,3.648-0.448,5.333-1.429
			C159.772,76.779,161.521,70.251,158.577,65.152z"/>
	</g>
</g>
<g>
	<g>
		<path d="M107.825,108.096L70.897,86.763c-5.099-2.923-11.648-1.216-14.592,3.904c-2.944,5.099-1.195,11.627,3.904,14.571
			l36.928,21.333c1.707,0.981,3.541,1.429,5.355,1.429c3.669,0,7.275-1.899,9.237-5.333
			C114.695,117.568,112.945,111.04,107.825,108.096z"/>
	</g>
</g>
<g>
	<g>
		<path d="M366.471,257.429l-36.928-21.333c-5.099-2.901-11.648-1.216-14.571,3.904c-2.965,5.099-1.216,11.627,3.883,14.571
			l36.928,21.333c1.707,0.981,3.541,1.429,5.355,1.429c3.669,0,7.275-1.899,9.237-5.333
			C373.34,266.901,371.591,260.373,366.471,257.429z"/>
	</g>
</g>
<g>
	<g>
		<path d="M85.34,170.667H42.673c-5.909,0-10.667,4.779-10.667,10.667S36.764,192,42.673,192H85.34
			c5.888,0,10.667-4.779,10.667-10.667S91.228,170.667,85.34,170.667z"/>
	</g>
</g>
<g>
	<g>
		<path d="M384.007,170.667H341.34c-5.909,0-10.667,4.779-10.667,10.667S335.431,192,341.34,192h42.667
			c5.888,0,10.667-4.779,10.667-10.667S389.895,170.667,384.007,170.667z"/>
	</g>
</g>
<g>
	<g>
		<path d="M111.708,240c-2.944-5.12-9.472-6.848-14.549-3.904l-36.928,21.333c-5.099,2.944-6.848,9.472-3.904,14.571
			c1.941,3.435,5.547,5.333,9.216,5.333c1.813,0,3.648-0.448,5.333-1.429l36.928-21.333
			C112.903,251.627,114.652,245.099,111.708,240z"/>
	</g>
</g>
<g>
	<g>
		<path d="M370.353,90.667c-2.923-5.12-9.451-6.869-14.571-3.904l-36.928,21.333c-5.099,2.944-6.848,9.472-3.904,14.571
			c1.963,3.435,5.568,5.333,9.237,5.333c1.813,0,3.648-0.448,5.333-1.429l36.928-21.333
			C371.548,102.293,373.297,95.765,370.353,90.667z"/>
	</g>
</g>
<g>
	<g>
		<path d="M304.007,24.299c-5.077-2.901-11.627-1.216-14.571,3.904l-21.333,36.949c-2.944,5.099-1.195,11.627,3.904,14.571
			c1.685,0.96,3.52,1.429,5.333,1.429c3.669,0,7.275-1.899,9.237-5.333l21.333-36.949C310.876,33.771,309.127,27.243,304.007,24.299
			z"/>
	</g>
</g>
<g>
	<g>
		<path d="M281.223,113.429c-18.133-18.112-42.24-28.096-67.883-28.096c-25.643,0-49.749,9.984-67.883,28.117
			c-20.8,20.779-30.763,49.579-27.349,78.955c0.555,4.672,4.096,8.448,8.747,9.28c4.757,0.725,9.301-1.557,11.392-5.76l3.776-7.552
			c1.557-3.115,3.584-5.909,6.016-8.341l42.688-42.667c5.931-5.952,14.165-9.365,22.613-9.365l2.645,0.107
			c9.387,0.768,17.92,5.611,23.403,13.291l47.872,67.029c2.048,2.837,5.291,4.459,8.683,4.459c0.64,0,1.323-0.064,1.984-0.192
			c4.075-0.768,7.339-3.84,8.363-7.872C314.695,171.669,305.308,137.493,281.223,113.429z"/>
	</g>
</g>
<g>
	<g>
		<path d="M499.207,494.933l-62.976-83.947l-20.779-62.357c-0.896-2.667-2.837-4.885-5.355-6.165l-82.987-41.493L222.001,153.813
			c-1.835-2.56-4.693-4.181-7.808-4.437c-3.008-0.192-6.187,0.853-8.405,3.072l-42.667,42.667c-0.811,0.811-1.472,1.749-2.005,2.773
			l-34.133,68.267l-29.867,59.733c-0.725,1.493-1.109,3.115-1.109,4.779v38.251l-39.552,39.552
			c-1.984,1.984-3.115,4.693-3.115,7.531v38.251l-39.552,39.552c-3.051,3.051-3.968,7.637-2.304,11.627
			c1.664,3.989,5.547,6.571,9.856,6.571h469.333c4.032,0,7.723-2.283,9.536-5.888C502.023,502.507,501.618,498.176,499.207,494.933z
			 M257.969,374.763l-35.115-70.208c-1.045-2.069-2.709-3.733-4.779-4.779l-67.243-33.621l28.608-57.173l32.533-32.533
			l95.851,134.208L257.969,374.763z"/>
	</g>
</g>
<g>
</g>
<g>
</g>
<g>
</g>
<g>
</g>
<g>
</g>
<g>
</g>
<g>
</g>
<g>
</g>
<g>
</g>
<g>
</g>
<g>
</g>
<g>
</g>
<g>
</g>
<g>
</g>
<g>
</g>
</svg>
